HIERARCHY
ROOT joint_0
{
	OFFSET 0.000000 0.000000 0.000000
	CHANNELS 6 Xposition Yposition Zposition Zrotation Yrotation Xrotation 
	JOINT joint_1
	{
		OFFSET 6.590088 -1.122192 114.019043
		CHANNELS 3 Zrotation Yrotation Xrotation
		JOINT joint_2
		{
			OFFSET -5.956055 -0.820435 104.151001
			CHANNELS 3 Zrotation Yrotation Xrotation
			JOINT joint_3
			{
				OFFSET -7.343506 -1.103027 103.942993
				CHANNELS 3 Zrotation Yrotation Xrotation
				JOINT joint_4
				{
					OFFSET 3.109131 -2.857056 147.715942
					CHANNELS 3 Zrotation Yrotation Xrotation
					JOINT joint_5
					{
						OFFSET 28.592285 -2.852295 87.703979
						CHANNELS 3 Zrotation Yrotation Xrotation
						End Site
						{
							OFFSET 0.000000 0.000000 0.000000
						}
					}
				}
				JOINT joint_6
				{
					OFFSET -0.332520 -33.687378 82.401978
					CHANNELS 3 Zrotation Yrotation Xrotation
					JOINT joint_7
					{
						OFFSET -7.397461 -168.719177 -22.750977
						CHANNELS 3 Zrotation Yrotation Xrotation
						JOINT joint_8
						{
							OFFSET 17.065918 -24.903137 -272.721069
							CHANNELS 3 Zrotation Yrotation Xrotation
							JOINT joint_9
							{
								OFFSET 33.311279 -37.031616 -278.192993
								CHANNELS 3 Zrotation Yrotation Xrotation
								End Site
								{
									OFFSET 0.000000 0.000000 0.000000
								}
							}
						}
					}
				}
				JOINT joint_10
				{
					OFFSET 3.914307 30.461670 83.552979
					CHANNELS 3 Zrotation Yrotation Xrotation
					JOINT joint_11
					{
						OFFSET 15.543701 166.845459 -30.963013
						CHANNELS 3 Zrotation Yrotation Xrotation
						JOINT joint_12
						{
							OFFSET 35.734863 35.017700 -269.786011
							CHANNELS 3 Zrotation Yrotation Xrotation
							JOINT joint_13
							{
								OFFSET 70.506592 13.977783 -273.320007
								CHANNELS 3 Zrotation Yrotation Xrotation
								End Site
								{
									OFFSET 0.000000 0.000000 0.000000
								}
							}
						}
					}
				}
			}
		}
	}
	JOINT joint_14
	{
		OFFSET -0.314697 -95.093994 -116.004028
		CHANNELS 3 Zrotation Yrotation Xrotation
		JOINT joint_15
		{
			OFFSET -22.490723 2.017883 -455.510986
			CHANNELS 3 Zrotation Yrotation Xrotation
			JOINT joint_16
			{
				OFFSET -46.427490 7.144104 -496.360985
				CHANNELS 3 Zrotation Yrotation Xrotation
				JOINT joint_17
				{
					OFFSET 209.055420 -37.122803 -85.191002
					CHANNELS 3 Zrotation Yrotation Xrotation
					End Site
					{
						OFFSET 0.000000 0.000000 0.000000
					}
				}
			}
		}
	}
	JOINT joint_18
	{
		OFFSET 5.652832 94.642578 -116.244019
		CHANNELS 3 Zrotation Yrotation Xrotation
		JOINT joint_19
		{
			OFFSET -12.379883 -7.332642 -455.843994
			CHANNELS 3 Zrotation Yrotation Xrotation
			JOINT joint_20
			{
				OFFSET -45.227051 -8.172241 -496.457985
				CHANNELS 3 Zrotation Yrotation Xrotation
				JOINT joint_21
				{
					OFFSET 210.522949 -11.530396 -88.809004
					CHANNELS 3 Zrotation Yrotation Xrotation
					End Site
					{
						OFFSET 0.000000 0.000000 0.000000
					}
				}
			}
		}
	}
}
MOTION
Frames: 16
Frame Time: 0.016667
-2704.531006 972.081604 1202.005005 9.870250 11.870437 4.405089 -1.396304 -0.048308 -2.091254 -1.250012 0.172201 0.261720 -1.277054 -0.083309 -0.071049 -0.615215 -9.203152 2.066851 0.000000 0.000000 0.000000 -1.396156 4.644116 0.558875 -4.922162 6.055540 -15.925271 -176.804487 -81.426168 -161.614426 0.000000 0.000000 0.000000 2.197691 4.759579 4.555135 8.981482 1.138890 5.125511 175.806718 -73.855474 179.511527 0.000000 0.000000 0.000000 -1.254540 -19.083241 -6.121652 -0.921084 2.770854 -1.960595 -1.146077 10.845111 1.491980 0.000000 0.000000 0.000000 -3.220404 -13.656875 -0.522146 -3.738448 15.056024 -4.298401 -3.920083 4.194044 -1.351236 0.000000 0.000000 0.000000 
-2696.848389 969.748657 1196.213989 9.584678 11.645598 4.177757 -1.138024 0.122026 -1.723260 -1.021751 0.127831 0.268683 -1.039692 -0.008320 -0.078123 -0.505291 -9.033768 1.789040 0.000000 0.000000 0.000000 -1.257569 4.422826 0.562948 -5.332303 5.874073 -16.486988 -177.165592 -79.376879 -161.484738 0.000000 0.000000 0.000000 2.153430 4.802668 4.153425 8.788306 0.979435 4.823657 175.733479 -72.825371 -178.951947 0.000000 0.000000 0.000000 -1.180050 -19.349701 -5.902049 -1.031501 4.118587 -1.764213 -1.240566 8.786687 1.078500 0.000000 0.000000 0.000000 -3.691483 -14.784536 1.050427 -4.343210 18.439030 -6.398586 -4.752912 2.675597 -1.751492 0.000000 0.000000 0.000000 
-2689.899658 967.096069 1190.458984 9.448244 11.532774 3.706075 -0.879225 0.282685 -1.125362 -0.799666 0.040885 0.271851 -0.797751 0.104529 -0.101814 -0.362006 -8.935715 1.428173 0.000000 0.000000 0.000000 -1.125773 4.076970 0.680499 -5.743348 5.588263 -16.995982 -177.532751 -76.979833 -161.790145 0.000000 0.000000 0.000000 2.034953 4.643593 3.797949 8.814061 0.669571 4.805405 175.663029 -71.303900 -178.124466 0.000000 0.000000 0.000000 -0.994894 -19.507060 -5.407431 -1.078479 6.196796 -1.364430 -1.254611 5.611251 0.499045 0.000000 0.000000 0.000000 -4.214477 -16.156288 2.986207 -5.065385 21.855317 -8.616367 -5.830067 1.574124 -2.214835 0.000000 0.000000 0.000000 
-2683.746826 965.286682 1186.745972 9.482440 11.544354 3.314346 -0.742666 0.536193 -0.520166 -0.674725 -0.083435 0.228791 -0.637463 0.210708 -0.098828 -0.248579 -8.930967 1.139650 0.000000 0.000000 0.000000 -1.021877 3.588773 0.844545 -6.102811 5.198494 -17.483492 -177.793399 -75.308150 -161.954693 0.000000 0.000000 0.000000 1.920656 4.270430 3.474950 8.768975 0.314947 4.609928 175.531335 -70.236685 -177.504690 0.000000 0.000000 0.000000 -0.860466 -19.520095 -5.065075 -1.136357 7.543055 -0.931298 -1.274374 3.455763 0.104560 0.000000 0.000000 0.000000 -4.295094 -17.455364 4.554912 -5.321878 24.429957 -10.046103 -6.258321 0.741391 -2.410522 0.000000 0.000000 0.000000 
-2678.838135 964.937561 1186.182983 9.796934 11.787149 3.118005 -0.785236 0.837412 0.075884 -0.711685 -0.189636 0.114392 -0.631499 0.286871 -0.027755 -0.182559 -9.071850 0.961187 0.000000 0.000000 0.000000 -0.951838 2.916106 1.060491 -6.443375 4.682584 -18.055721 -177.909415 -74.678475 -161.626131 0.000000 0.000000 0.000000 1.835492 3.614322 3.134146 8.490167 -0.065626 3.957283 175.271598 -69.902965 -176.874275 0.000000 0.000000 0.000000 -0.872179 -19.515634 -5.082635 -1.270377 7.693081 -0.447501 -1.364291 3.040928 -0.005670 0.000000 0.000000 0.000000 -3.670670 -18.798805 5.428030 -4.783875 26.008409 -10.216565 -5.380482 -0.125244 -2.113803 0.000000 0.000000 0.000000 
-2674.726318 965.432678 1187.661011 10.304088 12.209703 3.041807 -0.932761 1.114791 0.622377 -0.849816 -0.256967 -0.019277 -0.732473 0.332353 0.071606 -0.148826 -9.310395 0.852020 0.000000 0.000000 0.000000 -0.903792 2.142651 1.318322 -6.742159 4.093983 -18.601868 -177.909010 -74.690196 -161.116397 0.000000 0.000000 0.000000 1.755260 2.779830 2.821155 8.134260 -0.482012 3.138391 174.964230 -69.986443 -176.439832 0.000000 0.000000 0.000000 -0.953184 -19.437959 -5.284490 -1.428859 7.158828 0.057898 -1.473617 3.494566 0.031233 0.000000 0.000000 0.000000 -2.647069 -20.244419 5.828336 -3.760460 26.808851 -9.559653 -3.690756 -0.976608 -1.506964 0.000000 0.000000 0.000000 
-2670.126221 966.077881 1189.869019 10.728977 12.657795 3.126676 -1.096309 1.296073 0.837486 -0.996694 -0.271124 -0.088098 -0.867039 0.352724 0.121169 -0.162485 -9.525796 0.850068 0.000000 0.000000 0.000000 -0.854038 1.478046 1.560319 -6.883364 3.582317 -18.858558 -177.788910 -75.252780 -160.828315 0.000000 0.000000 0.000000 1.679096 2.029900 2.657193 7.898423 -0.845418 2.563949 174.763945 -70.501407 -176.358297 0.000000 0.000000 0.000000 -0.997849 -19.083057 -5.521660 -1.512186 6.032037 0.300883 -1.530894 4.317538 0.154478 0.000000 0.000000 0.000000 -1.548215 -21.512510 5.873676 -2.580568 26.697296 -8.541196 -1.876488 -1.610174 -0.835891 0.000000 0.000000 0.000000 
-2664.513428 966.575684 1192.886963 11.045825 13.051710 3.488375 -1.297014 1.404749 0.466196 -1.152079 -0.246602 -0.038460 -1.043370 0.363543 0.079141 -0.249617 -9.682143 1.014164 0.000000 0.000000 0.000000 -0.788851 1.043626 1.793221 -6.765566 3.239884 -18.609661 -177.500121 -76.613723 -160.930706 0.000000 0.000000 0.000000 1.590406 1.446339 2.736260 7.914485 -1.117592 2.478842 174.769756 -71.716068 -176.819001 0.000000 0.000000 0.000000 -0.976723 -18.165875 -5.791265 -1.474607 3.972663 0.066819 -1.504591 5.610040 0.394469 0.000000 0.000000 0.000000 -0.276049 -22.385045 5.446926 -1.118961 25.392353 -7.201881 0.056256 -1.781590 -0.084087 0.000000 0.000000 0.000000 
-2658.413086 967.225647 1196.634033 11.295389 13.404785 4.024777 -1.547839 1.549438 -0.269071 -1.322293 -0.243545 0.089152 -1.247632 0.361125 -0.009494 -0.383881 -9.813188 1.285521 0.000000 0.000000 0.000000 -0.718574 0.716423 2.021754 -6.490970 2.960385 -18.073688 -177.110894 -78.538157 -161.287361 0.000000 0.000000 0.000000 1.507607 0.924682 2.984661 8.060136 -1.335963 2.625205 174.873773 -73.384346 -177.649068 0.000000 0.000000 0.000000 -0.928909 -16.885400 -6.108352 -1.356637 1.284515 -0.458983 -1.404162 7.402135 0.754176 0.000000 0.000000 0.000000 1.172942 -22.902238 4.640552 0.620566 22.985063 -5.658277 2.006635 -1.411014 0.716685 0.000000 0.000000 0.000000 
-2652.114258 968.229919 1199.550049 11.295508 13.773363 4.419146 -1.725921 1.648653 -0.897644 -1.429723 -0.253581 0.206133 -1.382370 0.348913 -0.077706 -0.498815 -9.923449 1.520014 0.000000 0.000000 0.000000 -0.657824 0.337830 2.193861 -6.248472 2.613244 -17.659473 -176.779629 -80.191101 -161.827991 0.000000 0.000000 0.000000 1.473777 0.445112 3.250944 8.175044 -1.514669 2.653154 174.930001 -74.739479 -178.477882 0.000000 0.000000 0.000000 -0.837472 -15.858486 -6.342568 -1.192274 -0.935020 -0.918924 -1.240161 8.961681 1.099703 0.000000 0.000000 0.000000 2.330208 -23.312553 3.975818 2.057335 20.214579 -4.360280 3.330059 -0.718374 1.292230 0.000000 0.000000 0.000000 
-2645.598145 969.555786 1201.129028 10.945381 14.269135 4.507225 -1.740161 1.529026 -1.183304 -1.437152 -0.231024 0.240340 -1.406442 0.331203 -0.098289 -0.571189 -10.002232 1.671188 0.000000 0.000000 0.000000 -0.643909 -0.162205 2.289071 -6.085914 2.139832 -17.489134 -176.531585 -81.199051 -162.575320 0.000000 0.000000 0.000000 1.554336 0.005010 3.506721 8.185115 -1.655627 2.379553 174.865853 -75.456533 -179.175033 0.000000 0.000000 0.000000 -0.691091 -15.397653 -6.362949 -0.996531 -2.304561 -1.216949 -1.040287 9.985895 1.365047 0.000000 0.000000 0.000000 3.021931 -23.773877 3.699243 2.961234 17.319086 -3.259975 3.920128 0.155834 1.582472 0.000000 0.000000 0.000000 
-2638.883545 971.237000 1201.876953 10.303617 14.812222 4.387131 -1.650984 1.313553 -1.269712 -1.374388 -0.203261 0.217353 -1.352188 0.312618 -0.099318 -0.623743 -10.065794 1.784648 0.000000 0.000000 0.000000 -0.638760 -0.715573 2.338099 -5.951673 1.608786 -17.442996 -176.324043 -81.943000 -163.486129 0.000000 0.000000 0.000000 1.681458 -0.384939 3.761630 8.174351 -1.758112 1.998576 174.764329 -75.863630 -179.874441 0.000000 0.000000 0.000000 -0.479576 -15.226058 -6.255633 -0.752476 -3.198936 -1.419474 -0.795213 10.680632 1.590235 0.000000 0.000000 0.000000 3.398192 -24.181849 3.662788 3.480731 14.184872 -2.231852 4.064841 1.322283 1.705716 0.000000 0.000000 0.000000 
-2632.322998 973.575928 1201.750000 9.471927 15.255920 4.149182 -1.535498 1.197835 -1.254380 -1.279879 -0.187021 0.190611 -1.262290 0.295132 -0.098504 -0.662171 -10.166974 1.861018 0.000000 0.000000 0.000000 -0.553323 -1.257961 2.370336 -5.876992 1.104530 -17.576025 -176.188783 -82.696627 -164.376815 0.000000 0.000000 0.000000 1.684165 -0.705034 3.918017 8.244729 -1.829412 1.727894 174.730378 -76.169109 179.391110 0.000000 0.000000 0.000000 -0.199096 -15.178672 -6.227046 -0.468928 -3.629195 -1.382890 -0.503651 10.923406 1.752464 0.000000 0.000000 0.000000 3.430435 -24.588373 3.796594 3.550517 11.263284 -1.399036 3.826591 2.614199 1.678506 0.000000 0.000000 0.000000 
-2626.225586 976.873596 1200.649048 8.475017 15.527910 3.846990 -1.417092 1.271627 -1.182787 -1.163360 -0.168722 0.189747 -1.150914 0.286938 -0.101280 -0.681098 -10.356229 1.879584 0.000000 0.000000 0.000000 -0.310084 -1.786481 2.384599 -5.900456 0.649893 -17.964166 -176.163925 -83.544389 -165.212779 0.000000 0.000000 0.000000 1.431349 -0.968374 3.899647 8.473039 -1.890980 1.704325 174.834145 -76.483252 178.604211 0.000000 0.000000 0.000000 0.163629 -15.303095 -6.454189 -0.140720 -3.380649 -0.939769 -0.153509 10.553193 1.826681 0.000000 0.000000 0.000000 2.970106 -25.060307 4.102248 2.972948 8.800477 -0.711582 3.059019 3.630950 1.422220 0.000000 0.000000 0.000000 
-2620.281250 980.828979 1198.671997 7.297343 15.699368 3.439195 -1.270928 1.435001 -1.026218 -1.018451 -0.155297 0.183266 -1.007790 0.285578 -0.097674 -0.687749 -10.587557 1.872794 0.000000 0.000000 0.000000 0.013651 -2.314472 2.384411 -5.974409 0.211782 -18.538152 -176.201277 -84.434877 -166.022654 0.000000 0.000000 0.000000 1.054048 -1.171974 3.791221 8.784202 -1.925911 1.796913 175.002654 -76.703730 177.782782 0.000000 0.000000 0.000000 0.595863 -15.570816 -6.762637 0.225541 -2.656783 -0.264857 0.242967 9.726302 1.836795 0.000000 0.000000 0.000000 2.151951 -25.541107 4.607933 1.889150 6.602901 0.002867 1.897252 4.571168 1.003862 0.000000 0.000000 0.000000 
-2613.912354 984.845642 1196.074951 6.031069 15.864386 2.915367 -1.112393 1.534003 -0.810322 -0.875792 -0.161108 0.150460 -0.861187 0.280136 -0.081072 -0.702089 -10.763891 1.908505 0.000000 0.000000 0.000000 0.279562 -2.795587 2.399917 -6.003386 -0.204484 -19.131762 -176.207270 -85.411702 -166.719078 0.000000 0.000000 0.000000 0.779712 -1.272337 3.730969 9.053274 -1.884950 1.820407 175.124213 -76.722017 176.945184 0.000000 0.000000 0.000000 1.040811 -15.725413 -6.874050 0.588235 -2.091391 0.279174 0.633170 8.768120 1.820509 0.000000 0.000000 0.000000 1.356948 -25.954881 5.225950 0.763904 4.494232 0.709752 0.758943 6.124710 0.628881 0.000000 0.000000 0.000000 
